<svg xmlns="http://www.w3.org/2000/svg" viewBox="0 0 30.66 30.35"><defs><style>.cls-1{fill:none;stroke:#1d1d1b;stroke-linejoin:bevel;stroke-width:0.25px;}</style></defs><title>flor-102</title><g id="Capa_12" data-name="Capa 12"><polygon class="cls-1" points="6.47 17.27 8.99 17.73 11.65 19.94 13.72 23.01 15.29 25.21 15.34 27.93 11.84 22.96 9.07 19.73 6.47 17.27"/><polygon class="cls-1" points="24.21 17.27 21.69 17.73 19.03 19.94 16.96 23.01 15.4 25.21 15.34 27.93 18.84 22.96 21.61 19.73 24.21 17.27"/><polygon class="cls-1" points="3.29 12.48 8.98 13.04 11.64 15.25 13.71 18.32 15.28 20.52 15.33 23.24 11.83 18.27 8.98 14.97 3.29 12.48"/><polygon class="cls-1" points="27.38 12.48 21.68 13.04 19.02 15.25 16.95 18.32 15.39 20.52 15.33 23.24 18.83 18.27 21.68 14.97 27.38 12.48"/><polygon class="cls-1" points="14.67 16.01 12.64 14.27 11.66 11.26 12.38 8.56 13.53 6.27 13.71 4.29 13.41 2.42 15.15 3.87 15.75 5.37 15.99 8.03 16.97 5.97 17.34 7.29 18.44 10.36 19 11.8 18.44 13.91 16.97 16.01 14.67 16.01"/><polygon class="cls-1" points="15.33 14.75 14.43 13.43 14.88 11.5 14.88 10.12 15.99 11.93 16.29 13.55 15.33 14.75"/></g></svg>