<svg xmlns="http://www.w3.org/2000/svg" viewBox="0 0 159.41 156.46"><defs><style>.cls-1{fill:none;stroke:#1d1d1b;stroke-linejoin:bevel;stroke-width:0.25px;}.cls-2{fill:#1d1d1b;}</style></defs><title>templos</title><g id="Capa_4" data-name="Capa 4"><path class="cls-1" d="M113.24,130.65c-2.87,4.61-17.34,8.11-34.76,8.11-16.28,0-30-3.06-34.05-7.21"/><path class="cls-1" d="M101.91,124.16c-2.69,3.15-12.09,5.48-23.28,5.48-10.32,0-19.12-2-22.53-4.76"/><path class="cls-1" d="M122.63,110.71C117.85,114.34,99.9,117,78.48,117c-18.69,0-34.74-2.05-41.7-5"/><path class="cls-1" d="M121.28,109.62c-2.13,1.63-7,3.06-13.63,4.13"/><path class="cls-1" d="M120,108.53c-1.87,1.43-5.89,2.69-11.4,3.69"/><path class="cls-1" d="M118.47,107.46c-1.56,1.19-4.69,2.27-9,3.16"/><path class="cls-1" d="M117,106.39a17.82,17.82,0,0,1-5.88,2.39"/><path class="cls-1" d="M115.91,105.29a12.91,12.91,0,0,1-3.33,1.61"/><path class="cls-1" d="M99.69,92.76c-4,1.37-12,2.31-21.21,2.31s-17.24-.94-21.22-2.31"/><path class="cls-1" d="M104.78,82.28c-2.5,1.51-13.33,2.66-26.3,2.66s-23.61-1.13-26.24-2.62"/><path class="cls-1" d="M103.71,81.38c-1.49.91-6.09,1.67-12.35,2.12"/><path class="cls-1" d="M102.89,80.47c-1.32.79-5.1,1.48-10.32,1.93"/><path class="cls-1" d="M101.93,79.56c-1.11.67-4,1.26-8.08,1.68"/><path class="cls-1" d="M101.14,78.65A18,18,0,0,1,95.37,80"/><path class="cls-1" d="M100.28,77.74a11.43,11.43,0,0,1-3.52,1"/><path class="cls-1" d="M99.36,76.84a6,6,0,0,1-1.47.56"/><path class="cls-1" d="M92.84,70.33c-2.86.82-8.22,1.37-14.36,1.37S67,71.15,64.11,70.33"/><path class="cls-1" d="M92.84,59.5c-2.86.81-8.22,1.36-14.36,1.36-6.87,0-12.76-.68-15.27-1.66"/><path class="cls-1" d="M92.16,59A53.69,53.69,0,0,1,80,60.28"/><path class="cls-1" d="M90.71,58A45,45,0,0,1,81.1,59.1"/><path class="cls-1" d="M89.35,57a35,35,0,0,1-7,.93"/><path class="cls-1" d="M88.11,55.94a26.05,26.05,0,0,1-4.52.71"/><path class="cls-1" d="M86.66,54.92a14.11,14.11,0,0,1-1.69.35"/><line class="cls-1" x1="36.78" y1="112.05" x2="57.26" y2="92.76"/><line class="cls-1" x1="99.69" y1="92.76" x2="122.63" y2="110.71"/><line class="cls-1" x1="56.1" y1="124.88" x2="56.1" y2="115.97"/><line class="cls-1" x1="101.91" y1="124.16" x2="101.91" y2="115.86"/><line class="cls-1" x1="52.24" y1="82.32" x2="64.11" y2="70.33"/><line class="cls-1" x1="92.84" y1="70.33" x2="104.71" y2="82.32"/><polyline class="cls-1" points="63.21 59.2 77.63 48.16 92.84 59.5"/><line class="cls-1" x1="113.23" y1="114.09" x2="113.23" y2="130.65"/><line class="cls-1" x1="106.72" y1="115.25" x2="106.72" y2="134.84"/><line class="cls-1" x1="103.86" y1="115.63" x2="103.86" y2="135.77"/><line class="cls-1" x1="98.91" y1="116.16" x2="98.91" y2="136.95"/><line class="cls-1" x1="95.86" y1="116.41" x2="95.86" y2="137.49"/><line class="cls-1" x1="89.89" y1="116.78" x2="89.89" y2="138.24"/><line class="cls-1" x1="86.55" y1="117.04" x2="86.55" y2="138.5"/><line class="cls-1" x1="80.28" y1="117.04" x2="80.28" y2="138.75"/><line class="cls-1" x1="77.58" y1="117.04" x2="77.58" y2="138.75"/><line class="cls-1" x1="72.06" y1="116.96" x2="72.06" y2="138.6"/><line class="cls-1" x1="69.01" y1="116.86" x2="69.01" y2="138.4"/><line class="cls-1" x1="62.17" y1="116.49" x2="62.17" y2="137.65"/><line class="cls-1" x1="59.3" y1="116.27" x2="59.3" y2="137.19"/><line class="cls-1" x1="54.17" y1="115.76" x2="54.17" y2="135.97"/><line class="cls-1" x1="50.9" y1="115.34" x2="50.9" y2="135.08"/><line class="cls-1" x1="47.02" y1="114.73" x2="47.02" y2="133.52"/><line class="cls-1" x1="44.33" y1="114.22" x2="44.33" y2="131.64"/><line class="cls-1" x1="111.16" y1="132.66" x2="111.16" y2="114.51"/><line class="cls-1" x1="98.77" y1="83.78" x2="98.77" y2="93.05"/><line class="cls-1" x1="96.69" y1="84.05" x2="96.69" y2="93.56"/><line class="cls-1" x1="92.57" y1="84.44" x2="92.57" y2="94.25"/><line class="cls-1" x1="90.39" y1="84.59" x2="90.39" y2="94.5"/><line class="cls-1" x1="86.36" y1="84.79" x2="86.36" y2="94.83"/><line class="cls-1" x1="84.12" y1="84.86" x2="84.12" y2="94.95"/><line class="cls-1" x1="79.31" y1="95.07" x2="79.31" y2="84.94"/><line class="cls-1" x1="76.78" y1="84.93" x2="76.78" y2="95.07"/><line class="cls-1" x1="72.31" y1="84.85" x2="72.31" y2="94.92"/><line class="cls-1" x1="69.97" y1="84.77" x2="69.97" y2="94.79"/><line class="cls-1" x1="65.7" y1="94.4" x2="65.7" y2="84.54"/><line class="cls-1" x1="63.24" y1="84.35" x2="63.24" y2="94.08"/><line class="cls-1" x1="57.92" y1="83.75" x2="57.92" y2="93"/><line class="cls-1" x1="59.94" y1="84.01" x2="59.94" y2="93.51"/><line class="cls-1" x1="65.77" y1="70.72" x2="65.77" y2="59.89"/><line class="cls-1" x1="67.86" y1="60.23" x2="67.86" y2="71.06"/><line class="cls-1" x1="72.72" y1="71.53" x2="72.72" y2="60.69"/><line class="cls-1" x1="74.91" y1="60.8" x2="74.91" y2="71.63"/><line class="cls-1" x1="79.82" y1="60.86" x2="79.82" y2="71.7"/><line class="cls-1" x1="82.21" y1="71.63" x2="82.21" y2="60.8"/><line class="cls-1" x1="87.67" y1="60.4" x2="87.67" y2="71.24"/><line class="cls-1" x1="90.09" y1="60.08" x2="90.09" y2="70.88"/><polygon class="cls-1" points="76.8 41.94 74.42 39.89 73.27 36.35 74.12 33.17 75.46 30.49 75.67 28.16 75.32 25.97 77.37 27.66 78.08 29.43 78.36 32.56 79.51 30.14 79.94 31.69 81.24 35.29 81.89 36.99 81.24 39.46 79.51 41.94 76.8 41.94"/><polygon class="cls-1" points="77.55 40.45 76.48 38.9 77.02 36.64 77.02 35.01 78.33 37.13 78.68 39.04 77.55 40.45"/><path class="cls-2" d="M79.21,143.45c-21.65,0-40.72-4-46.38-9.82l-.14.15c5.69,5.81,24.82,9.87,46.52,9.87,23.52,0,43.5-4.67,47.51-11.11l-.17-.1C122.57,138.82,102.66,143.45,79.21,143.45Z"/><path class="cls-2" d="M79.15,146.32a184.28,184.28,0,0,1-35.84-3.25l0,.19a183.89,183.89,0,0,0,35.88,3.26,181.37,181.37,0,0,0,37-3.49l0-.2A181,181,0,0,1,79.15,146.32Z"/><path class="cls-2" d="M79,149.81c-7,0-13.91-.33-20.46-1l0,.19c6.56.66,13.45,1,20.48,1a207.39,207.39,0,0,0,21.83-1.12l0-.2A207,207,0,0,1,79,149.81Z"/></g></svg>